<?xml version="1.0" encoding="utf-8"?>
<!-- Generator: Adobe Illustrator 23.0.1, SVG Export Plug-In . SVG Version: 6.00 Build 0)  -->
<svg version="1.1" id="Layer_1" 
	xmlns="http://www.w3.org/2000/svg" 
	xmlns:xlink="http://www.w3.org/1999/xlink" x="0px" y="0px" viewBox="0 0 17.7 21.2" style="enable-background:new 0 0 17.7 21.2;" xml:space="preserve">
	<polygon fill="#DDD" points="8.9,20.8 5.8,19.7 3.4,17.2 2.3,14.5 2.3,11.1 3.6,8.4 6.2,5.9 8.9,5 	"/>
	<polygon fill="#DDD" points="8.9,5 11.9,6 14.3,8.5 15.5,11.3 15.5,14.7 14.2,17.3 11.5,19.8 8.9,20.7 	"/>
	<polygon fill="#F26739" points="6.2,4.2 7.2,2.3 8.9,1.7 10.3,2.1 11.7,4.2 8.9,3.8 	"/>
	<g transform="translate(0,-270.54165)">
		<path d="M8.9,275.4c0,15.9,0,15.9,0,15.9" fill="none" stroke="#000000" stroke-width="0.80000001" stroke-linecap="round" stroke-linejoin="round" stroke-miterlimit="4" />
		<path d="M8.9,291.3c1.8-0.3,3.5-1.3,4.7-2.8c1.2-1.4,1.9-3.3,1.9-5.2c0-1.9-0.7-3.7-1.9-5.2s-2.9-2.4-4.7-2.8" fill="none" stroke="#000000" stroke-width="0.80000001" stroke-linecap="round" stroke-linejoin="round" stroke-miterlimit="4" />
		<path d="M8.9,291.3C7,291,5.3,290,4.1,288.5c-1.2-1.4-1.9-3.3-1.9-5.2c0-1.9,0.7-3.7,1.9-5.2s2.9-2.4,4.7-2.8" fill="none" stroke="#000000" stroke-width="0.80000001" stroke-linecap="round" stroke-linejoin="round" stroke-miterlimit="4" />
		<path d="M12.8,277.3l1.3-1.3" fill="none" stroke="#000000" stroke-width="0.80000001" stroke-linecap="round" stroke-linejoin="round" stroke-miterlimit="4" />
		<path d="M15.5,283.4h1.9" fill="none" stroke="#000000" stroke-width="0.80000001" stroke-linecap="round" stroke-linejoin="round" stroke-miterlimit="4" />
		<path d="M2.8,290l1.3-1.3" fill="none" stroke="#000000" stroke-width="0.80000001" stroke-linecap="round" stroke-linejoin="round" stroke-miterlimit="4" />
		<path d="M4.9,277.3L3.6,276" fill="none" stroke="#000000" stroke-width="0.80000001" stroke-linecap="round" stroke-linejoin="round" stroke-miterlimit="4" />
		<path d="M0.4,283.4h1.9" fill="none" stroke="#000000" stroke-width="0.80000001" stroke-linecap="round" stroke-linejoin="round" stroke-miterlimit="4" />
		<path d="M15,290l-1.3-1.3" fill="none" stroke="#000000" stroke-width="0.80000001" stroke-linecap="round" stroke-linejoin="round" stroke-miterlimit="4" />
		<path d="M6.2,275.2c0.8-0.5,1.7-0.8,2.6-0.8s1.9,0.3,2.6,0.8" fill="none" stroke="#000000" stroke-width="0.80000001" stroke-linecap="round" stroke-linejoin="round" stroke-miterlimit="4" />
		<path d="M6.2,275.2c-0.1-0.7,0.2-1.5,0.7-2c0.5-0.5,1.2-0.9,2-0.9s1.5,0.3,2,0.9s0.7,1.3,0.7,2" fill="none" stroke="#000000" stroke-width="0.80000001" stroke-linecap="round" stroke-linejoin="round" stroke-miterlimit="4" />
		<path d="M10.5,272.3l1.3-1.3" fill="none" stroke="#000000" stroke-width="0.80000001" stroke-linecap="round" stroke-linejoin="round" stroke-miterlimit="4" />
		<path d="M7.3,272.3L6,270.9" fill="none" stroke="#000000" stroke-width="0.80000001" stroke-linecap="round" stroke-linejoin="round" stroke-miterlimit="4" />
	</g>
</svg>
