<?xml version="1.0" encoding="utf-8"?>
<!-- Generator: Adobe Illustrator 23.0.2, SVG Export Plug-In . SVG Version: 6.00 Build 0)  -->
<svg version="1.1" id="Layer_1" 
	xmlns="http://www.w3.org/2000/svg" 
	xmlns:xlink="http://www.w3.org/1999/xlink" x="0px" y="0px" viewBox="0 0 34.3 40.2" enable-background="new 0 0 34.3 40.2" xml:space="preserve">
	<path d="M6.4,30.6c0-2.2,0.2-4.1,0.2-6.2c0-1.2-0.5-2.4-2.6-2.4v-0.9c2.1,0,2.6-1.2,2.6-2.4c0-2.1-0.2-4-0.2-6.2
			c0-3,1.1-3.8,3.3-3.8h1v0.9H9.8c-1.8,0-2.3,1-2.3,3.1c0,1.9,0.2,3.6,0.2,5.8c0,1.8-0.4,2.8-1.5,3.1v0.1C7.3,22,7.7,23,7.7,24.7
			c0,2.2-0.2,3.8-0.2,5.8c0,2.1,0.5,3.1,2.3,3.1h0.9v0.9h-1C7.5,34.4,6.4,33.6,6.4,30.6z"/>
	<path fill="#F26739" d="M14.5,15.4l1.6-2.6l-2.7-1.1l0.3-0.9l2.8,0.8l0.2-3.1h1l0.2,3l2.8-0.7l0.3,0.9l-2.7,1.1l1.6,2.6L19.2,16
			l-1.9-2.5l-2,2.5L14.5,15.4z"/>
	<path d="M23.9,33.6h0.9c1.8,0,2.3-1,2.3-3.1c0-1.9-0.2-3.6-0.2-5.8c0-1.7,0.4-2.8,1.5-3.1v-0.1c-1.2-0.4-1.5-1.4-1.5-3.1
			c0-2.2,0.2-3.8,0.2-5.8c0-2.1-0.5-3.1-2.3-3.1h-0.9V8.6h1c2.2,0,3.3,0.8,3.3,3.8c0,2.2-0.2,4.1-0.2,6.2c0,1.2,0.5,2.4,2.6,2.4V22
			c-2.1,0-2.6,1.2-2.6,2.4c0,2.1,0.2,3.9,0.2,6.2c0,3-1.1,3.8-3.3,3.8h-1V33.6z"/>
</svg>
