<?xml version="1.0" encoding="utf-8"?>
<!-- Generator: Adobe Illustrator 23.0.1, SVG Export Plug-In . SVG Version: 6.00 Build 0)  -->
<svg version="1.1" 
	xmlns="http://www.w3.org/2000/svg" x="0px" y="0px" viewBox="0 0 71.7 51.3" style="enable-background:new 0 0 71.7 51.3;" xml:space="preserve">
	<polyline fill="#FFF" points="5.9,49.4 5.9,4.1 63.6,21.6 63.3,49.4 	"/>
	<path d="M30.4,42H39v-8.6h-8.6V42z M15,27.6h8.6V19H15V27.6z M30.4,27.6H39V19h-8.6V27.6z
		M45.3,42h8.6v-8.6h-8.6C45.3,33.4,45.3,42,45.3,42z M65.4,20.1L65.4,20.1l-17.6-5.5L1,0L0,3.3l3.9,1.2v46.8h61.4V23.6l5.3,1.6
	l1-3.3L65.4,20.1L65.4,20.1z M61.9,47.8H24l0,0l-8.9,0.1l0,0H7.3V5.7l39.4,12.1l15.2,4.7V47.8L61.9,47.8z"/>
	<polyline fill="#F26739" points="15.1,47.9 15.1,33.5 24,33.5 24,47.8 	"/>
</svg>
