<?xml version="1.0" encoding="utf-8"?>
<!-- Generator: Adobe Illustrator 23.0.1, SVG Export Plug-In . SVG Version: 6.00 Build 0)  -->
<svg version="1.1" 
	xmlns="http://www.w3.org/2000/svg" x="0px" y="0px" viewBox="0 0 166 94.1" style="enable-background:new 0 0 166 94.1;" xml:space="preserve">
	<polyline fill="#fff" points="3.5,80.5 3.5,10.9 145.3,10.9 156.5,20.6 156.2,29 142.2,28.6 163.8,57.9 163.8,76.3 157.9,80.5 	"/>
	<rect x="89.5" y="2.9" fill="#fff" width="18.5" height="8"/>
	<polygon fill="#999" points="25,77.1 35,69.6 46.9,75.3 46.9,85.7 36.5,91.9 27.9,89.1 	"/>
	<polygon fill="#999" points="119.6,76.9 129.6,69.3 141.4,75 141.4,85.4 131.1,91.7 122.4,88.8 	"/>
	<polyline fill="#F26739" points="79.9,27.9 78.8,80.5 100.7,80.8 100.7,27.9 	"/>
	<path d="M120.1,83c-0.4-0.9-0.6-1.9-0.6-3c0-0.7,0.1-1.4,0.3-2H103V27.5c0-1.4-1.1-2.5-2.5-2.5h-22c-1.4,0-2.5,1.1-2.5,2.5V78
			H47.2c0.2,0.6,0.3,1.3,0.3,2c0,1.1-0.2,2.1-0.6,3H120.1z M81,30h17v48H81V30z"/>
	<path d="M165.5,55.5l-3.8-5.2c-0.1-0.1-0.1-0.3-0.2-0.4l-2.2-2.8L146.5,30h6c4.1,0,7.5-3.4,7.5-7.5c0-0.1,0-0.3,0-0.4
			S157.4,8,138.8,8H110V3c0-1.7-1.3-3-3-3H89c-1.7,0-3,1.3-3,3v5H2.5C1.1,8,0,9.1,0,10.5v70C0,81.9,1.1,83,2.5,83h22.6
			c-0.4-0.9-0.6-1.9-0.6-3c0-0.7,0.1-1.4,0.3-2H5V13h133.8c13.3,0,15.9,8.3,16.2,9.7c-0.1,1.3-1.2,2.3-2.5,2.3h-11
			c-0.1,0-0.1,0-0.2,0c-0.1,0-0.2,0-0.3,0h-13.5c-1.4,0-2.5,1.1-2.5,2.5v24c0,1.4,1.1,2.5,2.5,2.5h30.6l2.9,3.8v16.9
			c0,0-0.1,3.3-1.8,3.3h-18c0.2,0.6,0.3,1.3,0.3,2c0,1.1-0.2,2.1-0.6,3h18.3c4.6,0,6.8-4.3,6.8-8.3V57
			C166,56.5,165.8,55.9,165.5,55.5z M104,8H92V6h12V8z M130,49V30h9.8l14.6,19H130z"/>
	<path d="M66.5,25h-29c-1.4,0-2.5,1.1-2.5,2.5v21c0,1.4,1.1,2.5,2.5,2.5h29c1.4,0,2.5-1.1,2.5-2.5v-21C69,26.1,67.9,25,66.5,25z
			 M64,46H40V30h24V46z"/>
	<path d="M22.5,25h-9c-1.4,0-2.5,1.1-2.5,2.5v21c0,1.4,1.1,2.5,2.5,2.5h9c1.4,0,2.5-1.1,2.5-2.5v-21C25,26.1,23.9,25,22.5,25z
			 M20,46h-4V30h4V46z"/>
	<path d="M36.5,94.1c-7.5,0-13.6-6.1-13.6-13.6S29,66.9,36.5,66.9S50.1,73,50.1,80.5S44,94.1,36.5,94.1z M36.5,71.9
			c-4.7,0-8.6,3.8-8.6,8.6s3.8,8.6,8.6,8.6s8.6-3.8,8.6-8.6S41.2,71.9,36.5,71.9z"/>
	<circle cx="36.5" cy="80.5" r="5.2"/>
	<path d="M130.5,94.1c-7.5,0-13.6-6.1-13.6-13.6s6.1-13.6,13.6-13.6s13.6,6.1,13.6,13.6S138,94.1,130.5,94.1z M130.5,71.9
			c-4.7,0-8.6,3.8-8.6,8.6s3.8,8.6,8.6,8.6c4.8,0,8.6-3.8,8.6-8.6S135.2,71.9,130.5,71.9z"/>
	<circle cx="130.5" cy="80.5" r="5.2"/>
</svg>
