<?xml version="1.0" encoding="utf-8"?>
<!-- Generator: Adobe Illustrator 23.0.2, SVG Export Plug-In . SVG Version: 6.00 Build 0)  -->
<svg version="1.1" 
	xmlns="http://www.w3.org/2000/svg" 
	xmlns:xlink="http://www.w3.org/1999/xlink" viewBox="0 0 55 56">
	<path d="M31.4,41.3c-0.8-0.5-1.4-1.5-1.4-2.5V3c0-1.7-1.3-3-3-3s-3,1.3-3,3v35.8c0,1-0.5,1.9-1.3,2.5c-3.7,2.4-4.8,7.4-2.4,11.1c2.4,3.7,7.4,4.8,11.1,2.4s4.8-7.4,2.4-11.1C33.1,42.7,32.3,41.9,31.4,41.3z M27,54c-3.3,0-6-2.7-6-6c0-2.9,2.1-5.4,5-5.9V28c0-0.6,0.4-1,1-1s1,0.4,1,1v14.1c3.3,0.6,5.4,3.7,4.9,6.9C32.4,51.9,29.9,54,27,54z"/>
	<circle fill="#F26739" cx="27" cy="48" r="4"/>
	<path d="M35,5h8c0.6,0,1-0.4,1-1s-0.4-1-1-1h-8c-0.6,0-1,0.4-1,1S34.4,5,35,5z"/>
	<path fill="#999999" d="M35,9h4c0.6,0,1-0.4,1-1s-0.4-1-1-1h-4c-0.6,0-1,0.4-1,1S34.4,9,35,9z"/>
	<path d="M43,11h-8c-0.6,0-1,0.4-1,1c0,0.6,0.4,1,1,1h8c0.6,0,1-0.4,1-1C44,11.4,43.6,11,43,11z"/>
	<path fill="#999999" d="M39,15h-4c-0.6,0-1,0.4-1,1s0.4,1,1,1h4c0.6,0,1-0.4,1-1S39.6,15,39,15z"/>
	<path fill="#AAAAAA" d="M0,13c0-1.7,1.3-3,3-3c0.3,0,0.6,0.1,0.9,0.1c0.3,0.1,0.7,0,1-0.2c0.3-0.2,0.4-0.6,0.3-1C5,8.6,5,8.3,5,8c0-2.2,1.8-4,4-4c1.3,0,2.5,0.6,3.3,1.7c0.3,0.4,0.7,0.5,1.1,0.4C13.6,6,13.8,6,14,6c1.1,0,2,0.9,2,2c0,0.3-0.1,0.7-0.2,1c-0.3,0.5-0.1,1.1,0.4,1.3c0,0,0,0,0,0c1.5,0.7,2.2,2.5,1.5,4C17.2,15.3,16.2,16,15,16H3C1.3,16,0,14.7,0,13z"/>
	<path fill="#CCCCCC" d="M6,18c1.1,0,2,0.9,2,2s-0.9,2-2,2s-2-0.9-2-2S4.9,18,6,18z"/>
	<path fill="#DDDDDD" d="M12,24c-1.1,0-2-0.9-2-2c0-1.1,0.9-2,2-2s2,0.9,2,2C14,23.1,13.1,24,12,24z"/>
	<path fill="#EEEEEE" d="M8,29c-1.1,0-2-0.9-2-2s0.9-2,2-2s2,0.9,2,2S9.1,29,8,29z"/>
</svg>
