<?xml version="1.0" encoding="utf-8"?>
<!-- Generator: Adobe Illustrator 23.0.2, SVG Export Plug-In . SVG Version: 6.00 Build 0)  -->
<svg version="1.1" id="Layer_1" xmlns="http://www.w3.org/2000/svg" xmlns:xlink="http://www.w3.org/1999/xlink" x="0px" y="0px"
	 viewBox="0 0 90.6 87.8" style="enable-background:new 0 0 90.6 87.8;" xml:space="preserve">
<path d="M63.6,25.8l-0.3-3.5l-0.6-0.2c-4.3-1.4-13.4-0.2-13.8-0.2L48,22.1l0.1,0.6l-4.5,0.4c-3.8,0.4-7.2,2.1-9.7,5l-2.7,3.1
	l-1.4-1.2L1,61.2l2.9,2.4C2.3,65.4-1,70.1,0.3,74.4c0.9,3.1,4,5.3,9.1,6.5c0.6,0.2,1.5,0.3,2.5,0.4c2.9,0.4,7.8,1.1,8.8,3.2
	c0.4,0.8,0.2,2.2-0.4,3.2h2.2c0.6-2,0.6-2.9,0-4.1c-1.5-3.1-6.6-3.8-10.4-4.3c-0.9-0.1-1.8-0.2-2.3-0.4c-4.3-1-6.9-2.8-7.6-5.2
	c-1-3.4,1.9-7.4,3.2-9l3.4,2.8l13.9-16.9c0.7-0.9,1.7-1.5,2.9-1.5l2-0.1l0.9-1.1l2.1,1.8l6.8-8.6l-1.6-1.4l0.8-0.9L35.5,38l1.5-1.8
	l-1.8-1.6l2.7-3.1c1.6-1.8,3.8-2.9,6.2-3.2l4.5-0.4l0.1,0.7l1-0.1c0.4,0,10.3-0.9,13.5-2.5L63.6,25.8z"/>
<path fill="#999" d="M26.6,47.2l-1.2,0.1c-1.7,0.1-3.3,1-4.3,2.3L8.5,64.9L3.9,61l26-28.3l4.3,3.7l-1.4,1.7l1,1L26.6,47.2z"/>
<polygon points="30.3,47.1 29.8,46.6 34.4,41.4 34.6,41.6 "/>
<path d="M43.8,26.5c-2.9,0.3-5.6,1.6-7.5,3.8l-2.5,2.9l-1.1-0.9l2.5-2.9c2.2-2.5,5.1-4,8.4-4.3l4.5-0.4l0.1,1.4L43.8,26.5z"/>
<path d="M50.3,26.6l-0.2-2.8c2.3-0.2,8-0.7,11.4,0l0.1,0.8C59,25.5,53.3,26.3,50.3,26.6z"/>
<path fill="#F26739" d="M67.6,18.8l2.5-9.1c0.1-0.5,0.7-0.8,1.2-0.7c0.5,0.1,0.8,0.7,0.7,1.2l-2.5,9.1c-0.1,0.4-0.5,0.7-1,0.7
	c-0.1,0-0.2,0-0.3,0C67.7,19.9,67.4,19.3,67.6,18.8z"/>
<path fill="#F26739" d="M70.2,38c-0.1,0-0.1,0-0.2,0c-0.5,0-0.9-0.3-1-0.8l-1.7-8.2c-0.1-0.5,0.2-1.1,0.8-1.2c0.5-0.1,1.1,0.2,1.2,0.8
	l1.7,8.2C71.1,37.4,70.7,37.9,70.2,38z"/>
<path fill="#F26739" d="M66.4,29l-4.5,12.7c-0.1,0.4-0.5,0.7-0.9,0.7c-0.1,0-0.2,0-0.3-0.1c-0.5-0.2-0.8-0.8-0.6-1.3l4.5-12.7
	c0.2-0.5,0.8-0.8,1.3-0.6C66.4,27.9,66.6,28.5,66.4,29z"/>
<path fill="#F26739" d="M86,36.2c0.4,0.3,0.5,0.9,0.2,1.4c-0.2,0.3-0.5,0.4-0.8,0.4c-0.2,0-0.4-0.1-0.6-0.2L70.8,27.7
	c-0.4-0.3-0.5-0.9-0.2-1.4c0.3-0.4,0.9-0.5,1.4-0.2L86,36.2z"/>
<path fill="#F26739" d="M85.2,22.1c0.1,0.5-0.3,1-0.9,1.1l-11.8,1.1c0,0-0.1,0-0.1,0c-0.5,0-0.9-0.4-1-0.9c-0.1-0.5,0.3-1,0.9-1.1
	l11.8-1.1C84.7,21.2,85.1,21.5,85.2,22.1z"/>
<path fill="#F26739" d="M70.4,19.7L83.5,7.9c0.4-0.4,1-0.3,1.4,0.1c0.4,0.4,0.3,1-0.1,1.4L71.7,21.2c-0.2,0.2-0.4,0.3-0.7,0.3
	c-0.3,0-0.5-0.1-0.7-0.3C69.9,20.7,70,20,70.4,19.7z"/>
<path fill="#F26739" d="M58.8,4.9c-0.2-0.5,0.1-1.1,0.6-1.3c0.5-0.2,1.1,0.1,1.3,0.6l5.6,14.5c0.2,0.5-0.1,1.1-0.6,1.3
	c-0.1,0-0.2,0.1-0.4,0.1c-0.4,0-0.8-0.2-0.9-0.6L58.8,4.9z"/>
<path fill="#F26739" d="M71.4,5.8l1.4-5.1C72.9,0.2,73.4-0.1,74,0c0.5,0.1,0.8,0.7,0.7,1.2l-1.4,5.1c-0.1,0.4-0.5,0.7-1,0.7
	c-0.1,0-0.2,0-0.3,0C71.6,6.9,71.3,6.3,71.4,5.8z"/>
<path fill="#F26739" d="M72,40.6l0.6,3.5c0.1,0.5-0.3,1.1-0.8,1.2c-0.1,0-0.1,0-0.2,0c-0.5,0-0.9-0.3-1-0.8L70.1,41
	c-0.1-0.5,0.3-1.1,0.8-1.2C71.4,39.7,71.9,40.1,72,40.6z"/>
<path fill="#F26739" d="M90.6,21.4c0.1,0.5-0.3,1-0.9,1.1l-1.9,0.2c0,0-0.1,0-0.1,0c-0.5,0-0.9-0.4-1-0.9c-0.1-0.5,0.3-1,0.9-1.1
	l1.9-0.2C90.1,20.5,90.6,20.9,90.6,21.4z"/>
</svg>
