<svg xmlns="http://www.w3.org/2000/svg" viewBox="0 0 1225 564">
    <path
        d="M129.74,272H90.25a6.62,6.62,0,0,0-4.57,1.67,5.8,5.8,0,0,0-1.88,4.57,6,6,0,0,0,1.88,4.36,6.19,6.19,0,0,0,4.57,1.87h32.83v41.11a58.1,58.1,0,0,1-15.27,6.7A68,68,0,0,1,89,335q-17.88,0-31.81-8.11a58,58,0,0,1-21.82-22.24q-7.9-14.14-7.89-32t7.89-31.91a59.06,59.06,0,0,1,21.82-22.25q13.94-8.19,31.81-8.21a63.1,63.1,0,0,1,17.46,2.4,79.11,79.11,0,0,1,15.37,6.13c.71.28,1.33.52,1.88.72a5.22,5.22,0,0,0,1.88.32,6,6,0,0,0,4-1.77,5.69,5.69,0,0,0,2-4.47,6.29,6.29,0,0,0-.73-3,7,7,0,0,0-2.18-2.39,65.26,65.26,0,0,0-18.5-7.8,85.56,85.56,0,0,0-21.2-2.6,77.35,77.35,0,0,0-29.83,5.62,73.07,73.07,0,0,0-23.8,15.69,70.74,70.74,0,0,0-15.8,23.8,81.56,81.56,0,0,0,0,59.45,70.74,70.74,0,0,0,15.8,23.8,72.93,72.93,0,0,0,23.8,15.7A77.53,77.53,0,0,0,89,347.44a76.17,76.17,0,0,0,23.38-3.64,82.05,82.05,0,0,0,20.68-9.87,8,8,0,0,0,2.3-2.5,6.23,6.23,0,0,0,.83-3.12V278.22a6.07,6.07,0,0,0-1.78-4.47A6.29,6.29,0,0,0,129.74,272Z" />
    <path
        d="M179.41,345.36a5.56,5.56,0,0,0,4.36-1.87,6.38,6.38,0,0,0,1.68-4.37V283.41h46.14a44.74,44.74,0,0,1,9.25,1,23.57,23.57,0,0,1,8.93,4,21.7,21.7,0,0,1,6.66,8q2.58,5.1,2.59,13.19,0,12.27,2,19.13c1.31,4.57,2.95,8,4.89,10.39a20.46,20.46,0,0,0,6,5.2,6.17,6.17,0,0,0,3.11.83,8.18,8.18,0,0,0,3.33-.73,4.89,4.89,0,0,0,2.49-2.38,5.11,5.11,0,0,0,.52-4.37,6.23,6.23,0,0,0-2.8-3.54,11.19,11.19,0,0,1-3.74-3.95,21.26,21.26,0,0,1-2.18-7.48,118.31,118.31,0,0,1-.95-13.92,37.54,37.54,0,0,0-4.26-17.57,31.56,31.56,0,0,0-10.7-11.64,34.15,34.15,0,0,0-6.16-3,41.7,41.7,0,0,0,12.6-7.57,36.08,36.08,0,0,0,9.35-12.89,41.17,41.17,0,0,0,3.33-16.73A39.2,39.2,0,0,0,270.57,219a37.65,37.65,0,0,0-14.66-14,43.7,43.7,0,0,0-21.2-5.09H178.58a5.88,5.88,0,0,0-4.46,1.87,6.14,6.14,0,0,0-1.78,4.37v133a5.87,5.87,0,0,0,2,4.37A7.13,7.13,0,0,0,179.41,345.36Zm75.15-125.44q8,7.79,8,19.64a33.72,33.72,0,0,1-3.95,16.52,30.32,30.32,0,0,1-10.07,11.12,28.79,28.79,0,0,1-13.21,4.58H185.45V212.12h48.22Q246.56,212.12,254.56,219.92Z" />
    <path
        d="M341.66,339.85a55.66,55.66,0,0,0,55.39,0A55.35,55.35,0,0,0,416.6,320a54.27,54.27,0,0,0,7.27-27.85V206.09a6.21,6.21,0,0,0-1.76-4.37,6,6,0,0,0-4.48-1.87,5.58,5.58,0,0,0-4.36,1.87,6.38,6.38,0,0,0-1.66,4.37v86.06a40.73,40.73,0,0,1-5.82,21.61A44.57,44.57,0,0,1,390.4,329a41,41,0,0,1-41.78,0,43.51,43.51,0,0,1-15.28-15.28,41.39,41.39,0,0,1-5.72-21.61V206.09a6.37,6.37,0,0,0-6.22-6.24,6.42,6.42,0,0,0-4.89,1.87,6.13,6.13,0,0,0-1.77,4.37v86.06A54.18,54.18,0,0,0,322,320,55,55,0,0,0,341.66,339.85Z" />
    <path
        d="M593.69,199.85a5.79,5.79,0,0,0-5.61,2.71l-54.83,81.75-54.51-81.75a7.35,7.35,0,0,0-2.6-2,7.14,7.14,0,0,0-3-.73,5.74,5.74,0,0,0-4.47,2,6.27,6.27,0,0,0-1.77,4.26v133a6.37,6.37,0,0,0,1.67,4.37,5.55,5.55,0,0,0,4.36,1.87,5.9,5.9,0,0,0,4.47-1.87,6.2,6.2,0,0,0,1.77-4.37V224.38L528,298.8a6.07,6.07,0,0,0,2.18,2,5.77,5.77,0,0,0,5.62,0,4.41,4.41,0,0,0,2-2l48.85-74V339.12a6,6,0,0,0,1.88,4.37,6.23,6.23,0,0,0,4.57,1.87,6.63,6.63,0,0,0,4.68-1.87,5.85,5.85,0,0,0,2-4.37v-133a6.05,6.05,0,0,0-1.76-4.47A5.83,5.83,0,0,0,593.69,199.85Z" />
    <path
        d="M649,345.36a6.39,6.39,0,0,0,6.23-6.24V283.83h43a37.85,37.85,0,0,0,20.58-5.61A40.06,40.06,0,0,0,733,262.94a44.64,44.64,0,0,0,5.2-21.51,43.73,43.73,0,0,0-5.2-21.62,38.33,38.33,0,0,0-14.14-14.66,39.57,39.57,0,0,0-20.58-5.3H649a5.9,5.9,0,0,0-4.47,1.87,6.13,6.13,0,0,0-1.77,4.37v133a6.37,6.37,0,0,0,1.67,4.37A5.81,5.81,0,0,0,649,345.36Zm63.39-129.5a26.15,26.15,0,0,1,9.47,10.29,32.54,32.54,0,0,1,3.43,15.28,34.13,34.13,0,0,1-3.43,15.27,27.8,27.8,0,0,1-9.47,11,24.76,24.76,0,0,1-14.14,4.06h-43V212.12h43A26.21,26.21,0,0,1,712.38,215.86Z" />
    <path
        d="M756.87,209.63,803.22,273v66.14a6,6,0,0,0,1.87,4.37,6.52,6.52,0,0,0,9.14,0,6,6,0,0,0,1.87-4.37V272.93l46.35-63.72a5.9,5.9,0,0,0,.95-1.87,7.47,7.47,0,0,0,.3-2.08,6.43,6.43,0,0,0-1.76-4.16,5.65,5.65,0,0,0-4.47-2.08,6.26,6.26,0,0,0-5.4,3.12L810,260.49l-43-58.56a6.19,6.19,0,0,0-5.19-2.91,7.05,7.05,0,0,0-4.48,1.77,5.49,5.49,0,0,0-2.18,4.47,6.32,6.32,0,0,0,.42,2.18A7.81,7.81,0,0,0,756.87,209.63Z" />
    <path
        d="M44.52,423.67a57.12,57.12,0,0,1,19-12.89,60.61,60.61,0,0,1,23.6-4.57,63.69,63.69,0,0,1,19.33,2.91,65.38,65.38,0,0,1,16.84,8.11,9.62,9.62,0,0,0,4.47.93A4.58,4.58,0,0,0,131.4,416a6.55,6.55,0,0,0,1.46-5.1,6.27,6.27,0,0,0-2.91-4.26,73.79,73.79,0,0,0-20-9.35A78.86,78.86,0,0,0,87.13,394a72.62,72.62,0,0,0-28.49,5.61,71.53,71.53,0,0,0-23.27,15.69,74.21,74.21,0,0,0-15.69,23.59A75.61,75.61,0,0,0,14,468.57a77.33,77.33,0,0,0,5.82,30.56A71.39,71.39,0,0,0,59,538a73.74,73.74,0,0,0,28.17,5.4,76.49,76.49,0,0,0,15.8-1.66,80,80,0,0,0,15-4.68,82.86,82.86,0,0,0,12.26-6.34,5.12,5.12,0,0,0,2.71-4,6.5,6.5,0,0,0-1.25-5,6.07,6.07,0,0,0-4-2.39,6.58,6.58,0,0,0-4.36.94,74.58,74.58,0,0,1-16.94,7.9,62.46,62.46,0,0,1-19.23,2.91,61.5,61.5,0,0,1-23.28-4.37,55.83,55.83,0,0,1-19-12.68A58.54,58.54,0,0,1,32,494.24a73.84,73.84,0,0,1-.1-50.82A58.24,58.24,0,0,1,44.52,423.67Z" />
    <path
        d="M273.78,414.84a64.69,64.69,0,0,0-22.13-15.59,73.95,73.95,0,0,0-56,0,65.21,65.21,0,0,0-22,15.59,72.56,72.56,0,0,0-14.54,23.69,89.53,89.53,0,0,0,0,60.08,72.46,72.46,0,0,0,14.54,23.69,65.21,65.21,0,0,0,22,15.59,73.95,73.95,0,0,0,56,0,64.69,64.69,0,0,0,22.13-15.59,71,71,0,0,0,14.46-23.69,91.19,91.19,0,0,0,0-60.08A71,71,0,0,0,273.78,414.84Zm-1,86.26A55.32,55.32,0,0,1,252.9,523q-12.57,7.9-29.2,7.9a53.4,53.4,0,0,1-49.16-29.83q-7.18-14-7.17-32.53T174.54,436a53.4,53.4,0,0,1,49.16-29.83q16.62,0,29.2,7.9A55.45,55.45,0,0,1,272.75,436q7.28,14,7.27,32.53T272.75,501.1Z" />
    <path
        d="M433.22,530.1a11.36,11.36,0,0,1-3.74-4,21.55,21.55,0,0,1-2.18-7.48,118.91,118.91,0,0,1-.94-13.93,37.69,37.69,0,0,0-4.26-17.57,31.64,31.64,0,0,0-10.71-11.63,34.11,34.11,0,0,0-6.15-3,41.45,41.45,0,0,0,12.59-7.57A36.14,36.14,0,0,0,427.19,452a41.13,41.13,0,0,0,3.33-16.73,39.11,39.11,0,0,0-5.3-20.37,37.56,37.56,0,0,0-14.66-14,43.56,43.56,0,0,0-21.2-5.09H333.24a5.87,5.87,0,0,0-4.47,1.87,6.11,6.11,0,0,0-1.77,4.37v133a5.86,5.86,0,0,0,2,4.37,7.11,7.11,0,0,0,5.1,1.87,5.56,5.56,0,0,0,4.36-1.87,6.37,6.37,0,0,0,1.67-4.37v-55.7h46.15a44.89,44.89,0,0,1,9.25,1,23.53,23.53,0,0,1,8.93,3.95,22,22,0,0,1,6.66,8q2.58,5.1,2.59,13.2,0,12.27,2,19.12t4.89,10.39a20.32,20.32,0,0,0,6,5.2,6.1,6.1,0,0,0,3.12.83,8.16,8.16,0,0,0,3.33-.72A4.89,4.89,0,0,0,435.5,538a5.15,5.15,0,0,0,.53-4.37A6.24,6.24,0,0,0,433.22,530.1ZM390,467.74H340.1V408.08h48.23q12.87,0,20.88,7.8t8,19.64A33.72,33.72,0,0,1,413.27,452a30.38,30.38,0,0,1-10.08,11.13A28.89,28.89,0,0,1,390,467.74Z" />
    <path
        d="M546.5,401.12a39.5,39.5,0,0,0-20.58-5.3H476.66a5.84,5.84,0,0,0-4.46,1.87,6.12,6.12,0,0,0-1.78,4.37v133a6.38,6.38,0,0,0,1.68,4.37,5.74,5.74,0,0,0,4.56,1.87,6.39,6.39,0,0,0,6.24-6.24V479.8h43a37.88,37.88,0,0,0,20.58-5.62,40,40,0,0,0,14.14-15.27,44.68,44.68,0,0,0,5.2-21.52,43.75,43.75,0,0,0-5.2-21.62A38.3,38.3,0,0,0,546.5,401.12Zm3,51.55a27.67,27.67,0,0,1-9.46,11,24.68,24.68,0,0,1-14.14,4.06h-43V408.08h43a25.49,25.49,0,0,1,23.6,14A32.45,32.45,0,0,1,553,437.39,34.07,34.07,0,0,1,549.52,452.67Z" />
    <path fill="#dc6d40"
        d="M987,178.7h0c-1.89.24-3.24-.8-5.49-2.57L980,174.88a28.69,28.69,0,0,0-6.39-4.36,15.91,15.91,0,0,0-1.82-.39,12.84,12.84,0,0,0-1.71-.37,15.46,15.46,0,0,0-5.91,0,20.33,20.33,0,0,0-2.6.55c-.13,0-.23,0-.37.08l-.05,0c-.25.1-.51.05-.75.16-.48.21-.9.54-1.36.79a13.06,13.06,0,0,0-1.37.56c-.32.2-.58.51-.88.74l-.21.18c-.29.23-.58.46-.86.72s-.49.39-.73.62-.38.4-.57.62a20.4,20.4,0,0,0-1.63,1.84,1.34,1.34,0,0,0-.11.14,21.38,21.38,0,0,0-3.55,6.36c-.36,1-1,2.81-1.47,3.08a3.92,3.92,0,0,0,1.85,7.38,3.83,3.83,0,0,0,1.85-.47,3.7,3.7,0,0,0,.49-.37,16.21,16.21,0,0,0,13.88,7.68,17.63,17.63,0,0,0,12.53-5.26,18.07,18.07,0,0,0,4.53-9.42,12.43,12.43,0,0,0,4.19.8h0a3.92,3.92,0,1,0,0-7.83Zm-22.21,5.55a5.19,5.19,0,0,1-6.19-2.09,4.65,4.65,0,0,1,1-1.52,12.66,12.66,0,0,1,3.48-2.57c.18-.07.37-.2.54-.25a9.31,9.31,0,0,1,2.65-.5,2,2,0,0,1,1.4.41,3.28,3.28,0,0,1,.81,2.73A5.87,5.87,0,0,1,964.8,184.25Z" />
    <path fill="#dc6d40"
        d="M1212,32.12a16.11,16.11,0,0,0-10.63-8.25l-36.63-8.61a16.13,16.13,0,0,0-19.72,14l-9.65,90.08c-19.13-4.09-96.26-19.37-148.21-12a93.24,93.24,0,0,0-54.38,27.29c-.41.37-.9.65-1.29,1-.12.12-.08.31-.18.44a108.14,108.14,0,0,0-21.86,34.09l-23.66,5.4a3.92,3.92,0,0,0-1.53,6.93,114.4,114.4,0,0,0,21.86,12.59c-.43,13.23.87,69.5,51.18,96.17A170.66,170.66,0,0,0,995,305.68c.14,0,.23.13.37.13h.05a180.82,180.82,0,0,0,24.28,4.19c-3,5.41-8.4,15.15-14.45,25.18-7,9.53-30,20.62-38.28,24.09a3.92,3.92,0,0,0,1.52,7.54,4,4,0,0,0,1.51-.3,207.42,207.42,0,0,0,22.31-11.31,90.89,90.89,0,0,1-7.53,9.49,3.92,3.92,0,0,0,.15,5.55,3.86,3.86,0,0,0,2.69,1.07,3.92,3.92,0,0,0,2.85-1.22c4.64-4.9,10.38-13.14,16-22,.12.2.13.46.26.66,4.46,6.5,13,8.06,14,8.21a3.24,3.24,0,0,0,.62,0,3.92,3.92,0,0,0,.64-7.78c-1.71-.29-6.63-1.75-8.79-4.94a7.31,7.31,0,0,1-.92-5.58c7.59-12.59,14-24.46,16.06-28.18,3.32.19,6.61.62,9.94.62a150.81,150.81,0,0,0,41.61-5.78c-2.35,9.22-7.11,27.55-12.1,45-6.07,15.28-27.1,27.26-27.3,27.37a3.92,3.92,0,1,0,3.83,6.84,100.75,100.75,0,0,0,17-12.62,142.43,142.43,0,0,1-5.86,15.76,3.92,3.92,0,0,0,1.81,5.24,4,4,0,0,0,1.71.39,3.91,3.91,0,0,0,3.52-2.21c2.55-5.26,5.91-15.27,9.38-26.73,5.85,5.36,14.51,6.78,15,6.85a3.82,3.82,0,0,0,.57,0,3.92,3.92,0,0,0,.56-7.8c-.11,0-11.52-2-13.28-8.78,6.36-22.05,12.45-46.08,14-52.16a116.92,116.92,0,0,0,40.06-24.22,126,126,0,0,0,25-33.19c7.7-14.42,17.5-45.16,15-66.87,9.17-15.22,12.35-33.24,10.63-49.69l33.23-83A16.14,16.14,0,0,0,1212,32.12Zm-25.73-3.75-26.29,92.92c-1.11-.13-2.26-.25-3.45-.37l18.31-95.24Zm-33.47,1.71a8.17,8.17,0,0,1,3.45-5.87,8.3,8.3,0,0,1,6.71-1.32l4.24,1-18.56,96.47c-1.77-.08-3.6-.14-5.48-.17ZM896.3,181.25,910.46,178l8,13.26C910,189,901.86,184.66,896.3,181.25Zm64.62,103.13c-43.7-23.17-47.14-71-47.06-86.38a56.18,56.18,0,0,0,12.08,2.56h.32a3.91,3.91,0,0,0,3.33-1.85,3.87,3.87,0,0,0,0-4.08l-13-21.52a95.57,95.57,0,0,1,20.12-31.81c.06-.06.16,0,.22-.09,8.71-8.74,26.46-9,37.57-3.76s18.9,17.3,20.66,32.17a63.59,63.59,0,0,1-.1,11.93c-.36,5.06-.72,10.29.28,15.65,1.82,9.75,7.61,17.26,13.92,24.73,14.25,16.88,17.27,37.36,8.29,56.2-4,8.32-12.86,17.75-21.81,19.63A162.55,162.55,0,0,1,960.92,284.38Zm159.18-81c-62.22,13.85-80.74-34.23-81.49-36.29a3.93,3.93,0,0,0-7.38,2.68c.18.5,16.59,43.92,67.63,43.92a105.81,105.81,0,0,0,23-2.66c17.17-3.8,30.12-12,39.42-22.55-.75,18.34-8,41-14.41,52.94a119,119,0,0,1-23.39,31.16c-30.83,28.74-75,35.28-115,28a50.3,50.3,0,0,0,16.28-19.06c10.22-21.43,6.72-45.59-9.37-64.63-5.6-6.63-10.74-13.24-12.21-21.11-.81-4.39-.5-8.9-.16-13.67a71.41,71.41,0,0,0,.06-13.41c-2.08-17.56-11.46-31.89-25.09-38.33a48.46,48.46,0,0,0-22.19-4.05,87.67,87.67,0,0,1,32.48-11.21c38.62-5.46,93.12,2.25,124.59,7.87a100.38,100.38,0,0,0-12.33,3.48c-34.36,12.31-45.79,23.43-46.26,23.9a3.92,3.92,0,0,0,5.52,5.57c.1-.1,11-10.49,43.39-22.09,17.72-6.34,37.22-6.4,51.38-5.15-2.81,10.19-11.22,16.7-16.32,19.68a56.22,56.22,0,0,1-12.87,5.31,33.92,33.92,0,0,0,3-15.93,3.92,3.92,0,0,0-7.81.62c.7,8.93-4,18.64-11.89,24.75-7.58,5.82-17.17,8.28-25.65,10.45a3.92,3.92,0,0,0,1,7.72,3.6,3.6,0,0,0,1-.13c9.2-2.35,19.64-5,28.49-11.82a39.25,39.25,0,0,0,6.36-6.26,61.26,61.26,0,0,0,10-2.45,25.64,25.64,0,0,1-8.3,16.06c-5.29,4.72-12,7.36-18.39,9.93a3.92,3.92,0,0,0,1.45,7.56,4,4,0,0,0,1.46-.28c6.73-2.68,14.37-5.73,20.7-11.36,7.31-6.53,11.5-15.73,11.18-24.61,0-.27-.26-.41-.32-.65,1.53-.74,3.12-1.27,4.62-2.14,6.38-3.72,17.23-11.95,20.38-25.55,4,.54,7.26,1.11,9.31,1.53C1174.17,160.42,1159.26,194.74,1120.1,203.42Zm85.24-160.77-32.29,80.71c-1.39-.28-3.14-.61-5.28-1l26.1-92.22,5.67,1.33a8.29,8.29,0,0,1,5.8,11.15Z" />
    <path
        d="M624.78,492.06a30.45,30.45,0,0,0,10,6.19,35,35,0,0,0,12,1.91,27.44,27.44,0,0,0,11.4-2.33,20.16,20.16,0,0,0,8.21-6.47,15.81,15.81,0,0,0,3-9.55,20.56,20.56,0,0,0-1.43-8.14,13.53,13.53,0,0,0-4.29-5.45,26.16,26.16,0,0,0-6.85-3.59,65.93,65.93,0,0,0-8.94-2.46,69.66,69.66,0,0,1-7.49-2.43,13.65,13.65,0,0,1-5.22-3.4,7.58,7.58,0,0,1-1.91-5.35,7.71,7.71,0,0,1,1.68-5,10.83,10.83,0,0,1,4.75-3.26,20.34,20.34,0,0,1,7.27-1.17,19.56,19.56,0,0,1,5.53.84,28.74,28.74,0,0,1,5.31,2.14,17.6,17.6,0,0,1,4.06,2.89,3.28,3.28,0,0,0,2.13.75,4.06,4.06,0,0,0,3-1.36,4.15,4.15,0,0,0,1.31-2.93,5.33,5.33,0,0,0-2.15-4,23,23,0,0,0-8.28-4.94A31.7,31.7,0,0,0,647,433.11a28.44,28.44,0,0,0-11.51,2.23,19,19,0,0,0-8,6.34,16.06,16.06,0,0,0-2.94,9.59,18.16,18.16,0,0,0,1.41,7.36,15.07,15.07,0,0,0,4,5.4,22.54,22.54,0,0,0,6.28,3.72,47.19,47.19,0,0,0,8.24,2.42,45.54,45.54,0,0,1,8.57,2.57,14.83,14.83,0,0,1,5.59,3.77,8.29,8.29,0,0,1,1.95,5.67,7.31,7.31,0,0,1-1.86,4.94,12.4,12.4,0,0,1-5,3.36,19.9,19.9,0,0,1-7.09,1.2A22.8,22.8,0,0,1,637.4,490a27.38,27.38,0,0,1-7.59-5.07,3.74,3.74,0,0,0-2.6-1,4.07,4.07,0,0,0-3.12,1.35,4.33,4.33,0,0,0-1.26,3,4.54,4.54,0,0,0,.51,2.05A5.56,5.56,0,0,0,624.78,492.06Z" />
    <path
        d="M692,434a4.42,4.42,0,0,0-3.11,1.16,4.25,4.25,0,0,0,0,6.06,4.42,4.42,0,0,0,3.11,1.16h16.67v52.34a4.26,4.26,0,0,0,1.31,3.17,4.53,4.53,0,0,0,3.35,1.3,4.72,4.72,0,0,0,3.39-1.3,4.27,4.27,0,0,0,1.36-3.17V442.42h16.58a4.75,4.75,0,0,0,3.17-1.11,3.77,3.77,0,0,0,1.3-3,4,4,0,0,0-1.3-3.12,4.64,4.64,0,0,0-3.17-1.16Z" />
    <path
        d="M768.72,435.25a4.39,4.39,0,0,0-3.13-1.3,4.54,4.54,0,0,0-3.35,1.3,4.3,4.3,0,0,0-1.3,3.17v35.85a26,26,0,0,0,3.3,13.13,24.64,24.64,0,0,0,9,9.13,26.84,26.84,0,0,0,26,0,24.31,24.31,0,0,0,8.93-9.13,26.16,26.16,0,0,0,3.27-13.13V438.42a4.56,4.56,0,0,0-1.16-3.17,4,4,0,0,0-3.13-1.3,3.7,3.7,0,0,0-3,1.3,4.67,4.67,0,0,0-1.12,3.17v35.85a16.14,16.14,0,0,1-2.34,8.7A16.76,16.76,0,0,1,786.28,491a15.8,15.8,0,0,1-8-2.14,16.29,16.29,0,0,1-6-5.92,16.81,16.81,0,0,1-2.23-8.7V438.42A4.26,4.26,0,0,0,768.72,435.25Z" />
    <path
        d="M839.35,435.34a4.33,4.33,0,0,0-1.3,3.17v56.25a4.44,4.44,0,0,0,4.46,4.47h22.92q9.11,0,15.23-4.38a27.1,27.1,0,0,0,9.21-11.78A41.92,41.92,0,0,0,893,466.63a44,44,0,0,0-1.71-12.48A31.39,31.39,0,0,0,886,443.72a24.3,24.3,0,0,0-8.65-7.12,26.68,26.68,0,0,0-12-2.56H842.51A4.31,4.31,0,0,0,839.35,435.34Zm33.76,9.13a17.06,17.06,0,0,1,5.92,5.31,23.77,23.77,0,0,1,3.44,7.73,36.93,36.93,0,0,1,1.12,9.12,34.73,34.73,0,0,1-2,12,19.27,19.27,0,0,1-6.19,8.8q-4.18,3.3-10.89,3.31H847.17V442.51H864.5A17.69,17.69,0,0,1,873.11,444.47Z" />
    <path
        d="M923.72,497.93a4.2,4.2,0,0,0,1.39-3.17V438.51a4.22,4.22,0,0,0-1.34-3.17,4.39,4.39,0,0,0-3.13-1.3,4.51,4.51,0,0,0-3.34,1.3,4.33,4.33,0,0,0-1.3,3.17v56.25a4.36,4.36,0,0,0,4.55,4.47A4.54,4.54,0,0,0,923.72,497.93Z" />
    <path
        d="M966.88,497.6a32.29,32.29,0,0,0,25.2,0,30.45,30.45,0,0,0,10-7.12,33,33,0,0,0,6.56-10.62,38.7,38.7,0,0,0,0-26.45,33,33,0,0,0-6.56-10.62,30.86,30.86,0,0,0-45.16,0,32.53,32.53,0,0,0-6.57,10.62,38.54,38.54,0,0,0,0,26.45,32.53,32.53,0,0,0,6.57,10.62A30.31,30.31,0,0,0,966.88,497.6Zm-6.56-43.68a22.47,22.47,0,0,1,7.73-8.8,20.34,20.34,0,0,1,11.46-3.26,20.11,20.11,0,0,1,11.35,3.26,22.71,22.71,0,0,1,7.79,8.85,29.75,29.75,0,0,1,0,25.33,22.71,22.71,0,0,1-7.79,8.85,20.11,20.11,0,0,1-11.35,3.26,20.34,20.34,0,0,1-11.46-3.26,22.34,22.34,0,0,1-7.73-8.85,30.25,30.25,0,0,1,0-25.38Z" />
    <path
        d="M1060.52,490.48a19.8,19.8,0,0,1-7.08,1.2,22.76,22.76,0,0,1-9.17-1.72,27.34,27.34,0,0,1-7.58-5.07,3.79,3.79,0,0,0-2.61-1,4.12,4.12,0,0,0-3.13,1.35,4.32,4.32,0,0,0-1.25,3,4.54,4.54,0,0,0,.51,2.05,5.19,5.19,0,0,0,1.44,1.77,30.77,30.77,0,0,0,10,6.19,34.83,34.83,0,0,0,12,1.91,27.48,27.48,0,0,0,11.41-2.33,20.09,20.09,0,0,0,8.19-6.47,15.77,15.77,0,0,0,3-9.55,20.19,20.19,0,0,0-1.46-8.14,13.26,13.26,0,0,0-4.28-5.45,25.77,25.77,0,0,0-6.84-3.59,65.77,65.77,0,0,0-8.93-2.46,67.74,67.74,0,0,1-7.5-2.43,13.57,13.57,0,0,1-5.22-3.4,8.37,8.37,0,0,1-.23-10.33,10.74,10.74,0,0,1,4.74-3.26,20.47,20.47,0,0,1,7.26-1.17,19.41,19.41,0,0,1,5.54.84,28.84,28.84,0,0,1,5.32,2.14,16.44,16.44,0,0,1,4,2.89,3.35,3.35,0,0,0,2.15.75,4,4,0,0,0,3-1.36,4.13,4.13,0,0,0,1.3-2.93,5.32,5.32,0,0,0-2.14-4,23.13,23.13,0,0,0-8.29-4.94,31.63,31.63,0,0,0-10.9-1.86,28.38,28.38,0,0,0-11.49,2.23,19,19,0,0,0-8,6.34,16,16,0,0,0-2.93,9.59,18.17,18.17,0,0,0,1.39,7.36,15.07,15.07,0,0,0,4,5.4,22.66,22.66,0,0,0,6.3,3.72,46.93,46.93,0,0,0,8.24,2.42,45.65,45.65,0,0,1,8.56,2.57,15.07,15.07,0,0,1,5.59,3.77,8.29,8.29,0,0,1,2,5.67,7.26,7.26,0,0,1-1.86,4.94A12.31,12.31,0,0,1,1060.52,490.48Z" />
    <path class="a" d="M1073.68,535.57H625.42a3.92,3.92,0,0,0,0,7.83h448.26a3.92,3.92,0,0,0,0-7.83Z" />
</svg>