<?xml version="1.0" encoding="utf-8"?>
<!-- Generator: Adobe Illustrator 23.0.1, SVG Export Plug-In . SVG Version: 6.00 Build 0)  -->
<svg version="1.1" 
	xmlns="http://www.w3.org/2000/svg" x="0px" y="0px" viewBox="0 0 93.1 91.8" style="enable-background:new 0 0 93.1 91.8;" xml:space="preserve">
	<polyline fill="#FFF" points="6.3,82 6.3,27.9 73.7,4.3 80.5,17 20.3,38.2 83.7,39.3 90.5,46.8 89,87.3 9.8,88.8 	"/>
	<polyline fill="#F26739" points="6.3,30.2 18.2,32.6 20.3,46.5 9.1,46.5 	"/>
	<path d="M87.1,82.8c0,2.4-1.6,3-3,3h-72c-2.4,0-3-1.7-3-3v-27h78V82.8z M81.9,40.8l-4.5,12h-12l4.5-12H81.9z M59.3,40.8l-4.5,12
	h-12l4.5-12H59.3z M36.8,40.8l-4.5,12h-12l4.5-12H36.8z M24.4,35.3l-8.2-9.9l11.4-3.9l8.2,9.9L24.4,35.3z M37.5,18l11.4-3.9
	l8.2,9.9l-11.5,3.9L37.5,18z M58.8,10.7l11.4-3.9l8.2,9.9L67,20.6L58.8,10.7z M14,35.1c2.3,0,4.2,1.9,4.2,4.2s-1.9,4.2-4.2,4.2
	s-4.2-1.9-4.2-4.2C9.8,37,11.6,35.1,14,35.1 M93.1,82.8V51.3v-1.5v-7.5c0-1.8-1.2-4.5-4.5-4.5H26.1l59.5-20.5
	c3.1-1.1,3.4-4,2.8-5.7l-2.9-8.5c-1.1-3.1-4-3.4-5.7-2.8L3.1,26.7c-3.1,1.1-3.4,4-2.8,5.7l3,8.5c0,0,0,0,0,0.1
	C3.2,41.4,3,41.8,3,42.3v7.5v1.5v31.5c0,3.6,2.4,9,9,9h72C87.7,91.9,93.1,89.5,93.1,82.8"/>
</svg>
