<?xml version="1.0" encoding="utf-8"?>
<!-- Generator: Adobe Illustrator 23.0.1, SVG Export Plug-In . SVG Version: 6.00 Build 0)  -->
<svg version="1.1" id="Layer_1" 
	xmlns="http://www.w3.org/2000/svg" x="0px" y="0px" viewBox="0 0 17 17" style="enable-background:new 0 0 17 17;" xml:space="preserve">
	<polygon fill="#FFF" points="0.3,9.8 9.1,1 14,0.6 15.3,1 16.5,3 16.3,7.5 7.3,16.4 "/>
	<circle fill="#999" cx="13.4" cy="3.6" r="1"/>
	<line stroke="#F26739" x1="1.2" y1="9.5" x2="7.5" y2="15.9"/>
	<g transform="translate(0,-1028.3622)">
		<path d="M13.2,1028.4L13.2,1028.4c0,0-0.8,0-2.5,0.2c-0.6,0-1.8,0.2-3.2,1.6l-7,7c-0.6,0.6-0.6,1.6,0,2.2l5.6,5.6
		c0.6,0.6,1.6,0.6,2.2,0l7-7c1.3-1.3,1.5-2.6,1.6-3.2c0.1-1.8,0.2-2.6,0.2-2.6c0,0,0,0,0,0c0.1-1-0.3-2-1-2.7
		C15.2,1028.6,14.2,1028.3,13.2,1028.4z M13.2,1029.4C13.3,1029.4,13.3,1029.4,13.2,1029.4c0.7-0.1,1.5,0.2,2,0.7
		c0.5,0.5,0.8,1.2,0.7,1.9c0,0-0.1,0.9-0.2,2.6c0,0.5-0.1,1.4-1.3,2.5l-7,7c-0.2,0.2-0.5,0.2-0.8,0l-5.6-5.6c-0.2-0.2-0.2-0.5,0-0.8
		l7-7c1.2-1.2,2-1.2,2.6-1.3C12.5,1029.4,13.2,1029.4,13.2,1029.4z M13.5,1030.4c-0.4,0-0.8,0.1-1.1,0.4c-0.6,0.6-0.6,1.5,0,2.1
		c0.6,0.6,1.5,0.6,2.1,0c0.6-0.6,0.6-1.5,0-2.1C14.3,1030.5,13.9,1030.4,13.5,1030.4z M13.5,1031.4c0.1,0,0.3,0.1,0.4,0.2
		c0.2,0.2,0.2,0.5,0,0.7s-0.5,0.2-0.7,0s-0.2-0.5,0-0.7C13.3,1031.4,13.4,1031.4,13.5,1031.4z"/>
	</g>
</svg>
