<svg xmlns="http://www.w3.org/2000/svg" viewBox="0 0 860 860">
    <path fill="#dc6d40"
        d="M291,372.32h0c-4.29.55-7.36-1.83-12.46-5.84l-3.45-2.84c-4.11-3.42-8.81-7.29-14.51-9.89-1.32-.6-2.79-.47-4.15-.9a27.54,27.54,0,0,0-3.88-.83,35.21,35.21,0,0,0-13.42-.07,44.13,44.13,0,0,0-5.9,1.25c-.31.09-.53.07-.84.17l-.12.05c-.57.22-1.15.13-1.71.37-1.07.47-2,1.22-3.07,1.78s-2.22.71-3.13,1.29c-.71.45-1.3,1.16-2,1.68-.17.12-.31.27-.48.4-.66.52-1.31,1.06-1.94,1.63s-1.12.9-1.67,1.4-.86.93-1.28,1.41a47.82,47.82,0,0,0-3.72,4.18c-.08.12-.17.22-.25.33a48.48,48.48,0,0,0-8.05,14.45c-.81,2.38-2.18,6.36-3.33,7A8.91,8.91,0,1,0,210,405c.44-.24.71-.59,1.11-.85a38.14,38.14,0,0,0,21.14,16,37.56,37.56,0,0,0,10.37,1.43,40,40,0,0,0,28.45-11.95c5.58-5.73,8.8-13.29,10.29-21.37a28.72,28.72,0,0,0,9.53,1.82H291a8.9,8.9,0,0,0,0-17.79Zm-50.45,12.6c-4.83,1.71-11,.33-14-4.74a10.34,10.34,0,0,1,2.18-3.46,28.26,28.26,0,0,1,7.91-5.83c.4-.17.84-.45,1.21-.57a21.32,21.32,0,0,1,6-1.15,4.56,4.56,0,0,1,3.19.95,7.42,7.42,0,0,1,1.82,6.2C248.25,379.62,244.48,383.56,240.54,384.92Z" />
    <path fill="#dc6d40"
        d="M801.8,39.45a36.57,36.57,0,0,0-24.13-18.74L694.49,1.17a36.62,36.62,0,0,0-44.8,31.76l-21.9,204.56c-43.46-9.28-218.6-44-336.57-27.19-56,7.93-95.79,34-123.5,62-.94.84-2.05,1.47-2.94,2.36-.27.28-.18.7-.41,1-30.21,31.85-45,65.23-49.62,77.41L61,365.32a8.91,8.91,0,0,0-3.47,15.73,259.68,259.68,0,0,0,49.64,28.59c-1,30.06,2,157.84,116.22,218.4a386.82,386.82,0,0,0,85.83,32.63c.31,0,.52.3.83.3h.12a407.92,407.92,0,0,0,55.14,9.53c-6.73,12.28-19.07,34.41-32.81,57.19-15.88,21.62-68.11,46.82-86.94,54.7A8.91,8.91,0,0,0,249,799.5a9.11,9.11,0,0,0,3.45-.69,473.68,473.68,0,0,0,50.65-25.67A206.84,206.84,0,0,1,286,794.69a8.91,8.91,0,0,0,.35,12.59,8.78,8.78,0,0,0,6.11,2.44,8.87,8.87,0,0,0,6.46-2.77c10.54-11.12,23.57-29.83,36.34-49.91.29.46.3,1,.6,1.48,10.12,14.78,29.56,18.31,31.76,18.66a7.5,7.5,0,0,0,1.42.12,8.9,8.9,0,0,0,1.45-17.68c-3.89-.66-15.07-4-20-11.21-2.36-3.46-2.94-7.69-2.08-12.68,17.22-28.59,31.9-55.54,36.46-64,7.54.44,15,1.42,22.58,1.42A342.78,342.78,0,0,0,502,660C496.63,681,485.83,722.57,474.5,762.2c-13.79,34.69-61.54,61.89-62,62.15a8.9,8.9,0,0,0,8.69,15.53,230,230,0,0,0,38.52-28.65c-5,15.34-9.61,28.12-13.32,35.77a8.89,8.89,0,1,0,16,7.77c5.8-11.93,13.43-34.67,21.31-60.7,13.29,12.18,32.94,15.4,34.11,15.56a9.51,9.51,0,0,0,1.28.09A8.9,8.9,0,0,0,520.36,792c-.25,0-26.15-4.45-30.16-19.94C504.66,722,518.49,667.42,522,653.62c33.13-12.09,64.16-30,91-55,21.73-20.23,40.79-45.59,56.67-75.37,17.48-32.74,39.73-102.56,34.1-151.86,20.83-34.55,28-75.49,24.15-112.84L803.31,70A36.65,36.65,0,0,0,801.8,39.45Zm-58.42-8.52L683.66,242c-2.52-.29-5.12-.58-7.83-.84L717.42,24.83Zm-76,3.89a18.57,18.57,0,0,1,7.82-13.34,18.84,18.84,0,0,1,15.24-3l9.63,2.26L657.92,239.84q-6-.3-12.45-.4ZM85,378.1l32.16-7.33,18.14,30.11C116,395.68,97.62,385.85,85,378.1ZM231.74,612.31c-99.25-52.62-107-161.15-106.88-196.16A127,127,0,0,0,152.29,422a6,6,0,0,0,.73,0,8.89,8.89,0,0,0,7.62-13.49l-29.42-48.86c3.82-10.51,17-42.16,45.69-72.23.14-.13.37-.07.5-.21,19.79-19.85,60.09-20.43,85.33-8.54s42.91,39.29,46.9,73.06c1.05,8.75.44,17.66-.23,27.1-.81,11.48-1.62,23.35.64,35.54,4.14,22.13,17.3,39.2,31.61,56.16,32.36,38.33,39.23,84.83,18.83,127.62-9,18.9-29.19,40.31-49.53,44.57A369.31,369.31,0,0,1,231.74,612.31ZM593.23,428.45C451.93,459.92,409.86,350.72,408.15,346a8.91,8.91,0,0,0-16.75,6.08c.41,1.15,37.67,99.76,153.59,99.76a241.67,241.67,0,0,0,52.12-6c39-8.65,68.39-27.33,89.51-51.23-1.7,41.65-18.25,93.14-32.72,120.24-15,28-32.83,51.84-53.11,70.75-70,65.26-170.32,80.12-261.2,63.51,16.31-11.11,29.62-27.94,37-43.3,23.21-48.66,15.27-103.52-21.26-146.76C342.56,444,330.88,429,327.55,411.1c-1.86-10-1.13-20.2-.38-31.05.67-9.85,1.39-20,.15-30.43-4.73-39.9-26-72.43-57-87.06-14.21-6.7-32.39-10-50.38-9.2a199.19,199.19,0,0,1,73.76-25.44c87.7-12.42,211.47,5.11,282.93,17.86a225.38,225.38,0,0,0-28,7.91c-78,27.94-104,53.21-105.06,54.28a8.91,8.91,0,0,0,12.55,12.65c.23-.25,25-23.83,98.53-50.18,40.25-14.39,84.52-14.52,116.68-11.68-6.38,23.12-25.48,37.92-37.06,44.68a127.93,127.93,0,0,1-29.23,12.06c5-11.68,7.65-24.11,6.69-36.18-.38-4.89-5-8.77-9.56-8.16a8.87,8.87,0,0,0-8.17,9.58c1.59,20.26-9,42.32-27,56.2-17.21,13.21-39,18.81-58.24,23.73a8.9,8.9,0,1,0,4.41,17.24c20.89-5.35,44.58-11.42,64.69-26.86a88.27,88.27,0,0,0,14.44-14.21,141.41,141.41,0,0,0,22.8-5.55C613.7,346.55,605,360,596.27,367.75c-12,10.71-27.15,16.72-41.78,22.55a8.91,8.91,0,0,0,3.3,17.18,9.05,9.05,0,0,0,3.31-.64c15.29-6.1,32.65-13,47-25.8,16.6-14.84,26.1-35.72,25.38-55.89,0-.6-.59-.92-.73-1.48,3.48-1.68,7.1-2.88,10.49-4.85,14.49-8.46,39.14-27.14,46.3-58,9,1.23,16.47,2.53,21.12,3.47C716,330.81,682.14,408.74,593.23,428.45ZM786.79,63.37,713.46,246.64c-3.16-.64-7.14-1.39-12-2.19L760.75,35l12.86,3a18.85,18.85,0,0,1,13.18,25.34Z" />
</svg>