<?xml version="1.0" encoding="utf-8"?>
<!-- Generator: Adobe Illustrator 23.0.1, SVG Export Plug-In . SVG Version: 6.00 Build 0)  -->
<svg version="1.1" xmlns="http://www.w3.org/2000/svg" xmlns:xlink="http://www.w3.org/1999/xlink" x="0px" y="0px"
	 viewBox="0 0 83.9 48.3" style="enable-background:new 0 0 83.9 48.3;" xml:space="preserve">
<style type="text/css">
	.st0{fill:#FFFFFF;}
	.st1{fill:#999999;}
	.st2{fill:#F26739;}
	.st3{fill:none;stroke:#000000;stroke-width:2.5;stroke-linecap:round;stroke-linejoin:round;}
</style>
<g id="Layer_2">
	<polygon class="st0" points="1.3,34.1 4.3,30.7 9,28.8 10.2,19.9 14.3,12.9 17.9,10.7 19.3,4.3 29,4.3 29,9.8 30.4,10.6 48.7,8.5 
		53,14.3 53.3,23.4 45.2,30 39.3,37.7 63.9,36.4 73.3,34.2 75.7,30.7 79.2,32.2 80.3,35.6 67.8,40.7 57.6,42.3 23.9,42.3 11.7,40.2 
		4.6,37.7 	"/>
	<polygon class="st1" points="25.3,45.3 24.3,42.7 57.1,42.3 56.6,44.7 41.8,47.7 	"/>
</g>
<g id="Layer_3">
	<polygon class="st2" points="39.8,35.9 48.7,27.2 65.6,16.2 71.4,18.2 75.9,24.5 75.3,32.1 73.3,34.2 56,37.3 40.7,38 	"/>
</g>
<g id="Layer_1">
	<title>대지 1 사본 161s</title>
	<path class="st3" d="M75.7,29.9c2.9,1.3,4.6,2.7,4.6,4.2c0,5-17.7,9-39.5,9s-39.5-4-39.5-9c0-2,2.9-3.8,7.7-5.3"/>
	<path class="st3" d="M7.2,33.8c7,2.5,19.4,4.2,33.5,4.2s26.5-1.7,33.5-4.2"/>
	<path class="st3" d="M57.3,42.3v1.1c0,2.1-7.4,3.8-16.5,3.8s-16.5-1.7-16.5-3.8v-1.1"/>
	<path class="st3" d="M19.3,4.3c0.5,3.2-0.8,6.5-3.4,8.4l-0.3,0.2c-4,2.7-6.3,7.2-6.3,12c0,4.6,2.3,8.8,6.3,11.2"/>
	<path class="st3" d="M29,4.3c0,0-2.3,4.4,2.3,8l0.4,0.4c4.1,2.7,6.6,7.2,6.6,12.1c0,6.1-4.1,11.4-10,12.9"/>
	<path class="st3" d="M21.3,1.3c0,0,2,2,1,7"/>
	<path class="st3" d="M26.3,1.3c-0.8,1.9-1.1,4-1,6"/>
	<path class="st3" d="M20.3,14.3c0,0-6,5-6,10s1.3,7.2,5,9"/>
	<path class="st3" d="M26.3,14.3c0,0,6,5,6,10s-1.3,7.2-5,9"/>
	<path class="st3" d="M22.3,18.3c0,0-5,6-1,11"/>
	<path class="st3" d="M25.3,22.3c0,0,2,3,0,8"/>
	<path class="st3" d="M39.4,38.1c-0.2-0.4-0.2-0.9,0-1.3c0.4-1.4,2-3.3,4.1-5.3l0.9-0.8l0,0c2.8-2.4,5.7-4.6,8.7-6.7
		c2.1-1.4,4.1-2.8,6-4c1.1-0.7,2.1-1.3,3-1.8l0.5-0.3c1.5-0.9,2.6-1.5,3-1.7c2.3-1,7,1.7,9.2,6.7c1,2.2,1.3,4.7,0.9,7.1
		c-0.3,2.1-1.2,3.7-2.4,4.2c-0.5,0.2-2.4,0.8-5,1.5"/>
	<line class="st3" x1="79.2" y1="16.8" x2="74.5" y2="21"/>
	<line class="st3" x1="82.7" y1="19.7" x2="75.3" y2="22.8"/>
	<line class="st3" x1="82.4" y1="24.1" x2="75.7" y2="23.7"/>
	<path class="st3" d="M66.7,25.5c-0.6-2.8-2.1-5.3-4.3-7.1l-0.3-0.2"/>
	<path class="st3" d="M62.2,25.2c-0.5-1.1-1.1-2.2-1.8-3.3c-0.7-1.1-1.3-2-1.3-2"/>
	<path class="st3" d="M53.2,24c0-0.7,0.1-1.3,0.1-1.7v-5.5c0-4.7-2.7-8.5-6-8.5c-1.2,0-2.4,0.6-3.3,1.4c-1-0.3-2.1-0.4-3.2-0.4h-0.5
		c-1.2,0.1-2.4,0.3-3.5,0.7c-0.7-0.5-1.6-0.7-2.4-0.7c-1.6,0-3.1,0.8-4,2.1"/>
	<path class="st3" d="M32.6,35.6c1.3,1.1,2.9,1.7,4.6,1.7c0.8,0,1.5-0.2,2.2-0.5"/>
	<path class="st3" d="M40.8,12.8C40,10,40.1,7,41.3,4.3"/>
	<path class="st3" d="M36.3,14.3c2.7-1.8,6.3-1.8,9,0"/>
	<path class="st3" d="M45.3,18.3c1.1,4.1,0.8,8.5-0.8,12.4"/>
	<path class="st3" d="M38.3,29.3c-0.2-0.3-0.3-0.6-0.5-0.9"/>
</g>
</svg>
