<svg viewBox="0 0 1200 1200" version="1.1" xmlns="http://www.w3.org/2000/svg" style="fill-rule:evenodd;clip-rule:evenodd;stroke-linejoin:round;stroke-miterlimit:2;">
    <g>
        <path d="M1080,599.44L880.08,599.44C869.486,599.44 860.908,590.862 860.908,580.268L860.908,578.299C860.908,490.877 932.017,419.769 1019.44,419.769C1027.13,419.769 1034.06,424.316 1037.11,431.394L1097.67,572.714C1100.2,578.62 1099.59,585.417 1096.03,590.808C1092.47,596.199 1086.47,599.48 1080,599.433L1080,599.44ZM900.512,561.049L1050.89,561.049L1007.06,458.769C952.359,464.535 908.484,506.628 900.512,561.049Z" style="fill-rule:nonzero;"/>
        <path d="M1080,745.5L1006.17,745.5C995.578,745.5 987,736.922 987,726.281L987,652.453C987,641.859 995.578,633.281 1006.17,633.281L1080,633.281C1085.11,633.281 1089.98,635.297 1093.59,638.906C1097.16,642.515 1099.22,647.39 1099.22,652.453L1099.22,726.281C1099.22,731.39 1097.16,736.265 1093.59,739.875C1089.99,743.484 1085.11,745.5 1080,745.5ZM1025.39,707.109L1060.78,707.109L1060.78,671.671L1025.39,671.671L1025.39,707.109Z" style="fill-rule:nonzero;"/>
        <path d="M903.417,689.39L856.776,689.39C846.182,689.39 837.604,680.812 837.604,670.171C837.604,659.577 846.182,650.999 856.776,650.999L903.417,650.999C914.011,650.999 922.636,659.577 922.636,670.171C922.636,680.812 914.011,689.39 903.417,689.39Z" style="fill-rule:nonzero;"/>
        <path d="M1034.3,876.28L1020.61,876.28C1009.97,876.28 1001.39,867.655 1001.39,857.061C1001.39,846.467 1009.97,837.842 1020.61,837.842L1034.3,837.842C1048.97,837.842 1060.83,825.983 1060.83,811.311L1060.83,584.201L1001.86,446.521C985.69,408.646 948.471,384.083 907.268,384.13L826.268,384.13L826.268,837.84L866.815,837.84C877.409,837.84 886.034,846.465 886.034,857.059C886.034,867.653 877.409,876.278 866.815,876.278L807.096,876.278C796.502,876.278 787.877,867.653 787.877,857.059L787.877,364.959C787.877,354.365 796.502,345.74 807.096,345.74L907.266,345.74C963.75,345.693 1014.89,379.396 1037.11,431.381L1097.67,572.701C1098.7,575.092 1099.21,577.623 1099.21,580.248L1099.21,811.298C1099.17,847.11 1070.11,876.173 1034.29,876.267L1034.3,876.28Z" style="fill-rule:nonzero;"/>
        <path d="M251.39,876.28L157.312,876.28C146.718,876.28 138.14,867.655 138.14,857.061L138.14,641.771C138.14,631.177 146.718,622.599 157.312,622.599L807.052,622.599C817.646,622.599 826.224,631.177 826.224,641.771C826.224,652.365 817.646,660.99 807.052,660.99L176.532,660.99L176.532,837.85L251.391,837.85C261.985,837.85 270.563,846.475 270.563,857.069C270.563,867.663 261.985,876.288 251.391,876.288L251.39,876.28Z" style="fill-rule:nonzero;"/>
        <path d="M807.05,740.95L157.31,740.95C146.716,740.95 138.138,732.325 138.138,721.731C138.138,711.137 146.716,702.559 157.31,702.559L807.05,702.559C817.644,702.559 826.222,711.137 826.222,721.731C826.222,732.325 817.644,740.95 807.05,740.95Z" style="fill-rule:nonzero;"/>
        <path d="M665.26,876.28L585.291,876.28C574.697,876.28 566.072,867.655 566.072,857.061L566.072,780.186C566.072,769.592 574.697,760.967 585.291,760.967L665.26,760.967C670.323,760.967 675.198,762.983 678.807,766.592C682.416,770.201 684.432,775.076 684.432,780.186L684.432,857.061C684.432,862.17 682.416,867.045 678.807,870.655C675.198,874.218 670.323,876.28 665.26,876.28ZM604.51,837.889L646.088,837.889L646.041,799.358L604.463,799.358L604.51,837.889Z" style="fill-rule:nonzero;"/>
        <path d="M943.64,953.16C904.781,953.16 869.765,929.769 854.859,893.863C840,857.957 848.203,816.613 875.718,789.093C903.187,761.624 944.53,753.421 980.438,768.281C1016.35,783.141 1039.74,818.203 1039.74,857.062C1039.69,910.124 996.704,953.109 943.641,953.156L943.64,953.16ZM943.64,799.37C920.296,799.37 899.296,813.432 890.343,834.995C881.437,856.557 886.359,881.401 902.859,897.901C919.359,914.401 944.203,919.323 965.765,910.37C987.281,901.464 1001.34,880.417 1001.34,857.073C1001.3,825.245 975.515,799.417 943.64,799.37Z" style="fill-rule:nonzero;"/>
        <path d="M328.26,953.16C289.401,953.16 254.338,929.769 239.479,893.863C224.62,857.957 232.823,816.613 260.291,789.093C287.807,761.624 329.103,753.421 365.011,768.281C400.919,783.141 424.355,818.203 424.355,857.062C424.308,910.124 381.324,953.109 328.261,953.156L328.26,953.16ZM328.26,799.37C304.916,799.37 283.869,813.432 274.963,834.995C266.01,856.557 270.979,881.401 287.479,897.901C303.979,914.401 328.776,919.323 350.338,910.37C371.9,901.464 385.963,880.417 385.963,857.073C385.916,825.245 360.088,799.417 328.26,799.37Z" style="fill-rule:nonzero;"/>
        <path d="M807.05,660.98L120,660.98C109.406,660.98 100.781,652.355 100.781,641.761L100.875,266.051C100.875,255.457 109.453,246.832 120.094,246.832L745.034,246.832C789.846,246.879 826.175,283.207 826.222,328.066L826.222,641.756C826.222,646.865 824.206,651.74 820.597,655.35C817.034,658.959 812.112,660.975 807.05,660.975L807.05,660.98ZM139.23,622.589L787.84,622.589L787.84,328.069C787.84,304.397 768.668,285.272 745.043,285.225L139.283,285.225L139.23,622.589Z" style="fill-rule:nonzero;"/>
        <path d="M807.05,876.28L405.15,876.28C394.556,876.28 385.978,867.655 385.978,857.061C385.978,846.467 394.556,837.842 405.15,837.842L807.05,837.842C817.644,837.842 826.222,846.467 826.222,857.061C826.222,867.655 817.644,876.28 807.05,876.28Z" style="fill-rule:nonzero;"/>
        <g transform="matrix(1.73546,0,0,1.73546,-444.526,-444.526)">
            <path d="M600,259.93C412.45,259.93 259.93,412.45 259.93,600C259.93,787.55 412.45,940.07 600,940.07C787.55,940.07 940.07,787.55 940.07,600C940.07,412.45 787.55,259.93 600,259.93ZM600,305.274C763.04,305.274 894.73,436.954 894.73,600.004C894.73,673.316 868.007,740.254 823.882,791.774L408.242,376.134C459.754,332.009 526.692,305.286 600.002,305.286L600,305.274ZM376.36,408.234L791.77,823.644C740.243,867.832 673.37,894.73 600,894.73C436.96,894.73 305.27,763.04 305.27,600C305.27,526.637 332.168,459.77 376.356,408.24L376.36,408.234Z" style="fill:rgb(255,0,0);fill-rule:nonzero;"/>
        </g>
    </g>
</svg>
